<svg xmlns="http://www.w3.org/2000/svg" version="1.1" xmlns:xlink="http://www.w3.org/1999/xlink" xmlns:svgjs="http://svgjs.dev/svgjs" width="2000" height="1981" viewBox="0 0 2000 1981"><g transform="matrix(1,0,0,1,-0.2956367785469638,-2.4158536585364345)"><svg viewBox="0 0 331 328" data-background-color="#21232b" preserveAspectRatio="xMidYMid meet" height="1981" width="2000" xmlns="http://www.w3.org/2000/svg" xmlns:xlink="http://www.w3.org/1999/xlink"><g id="tight-bounds" transform="matrix(1,0,0,1,0.0489278868495262,0.39999999999997726)"><svg viewBox="0 0 330.90167506015166 327.2" height="327.2" width="330.90167506015166"><g><svg viewBox="0 0 395.52 391.09546355869895" height="327.2" width="330.90167506015166"><g transform="matrix(1,0,0,1,0,250.9266299743168)"><svg viewBox="0 0 395.52 140.16883358438218" height="140.16883358438218" width="395.52"><g id="textblocktransform"><svg viewBox="0 0 395.52 140.16883358438218" height="140.16883358438218" width="395.52" id="textblock"><g><svg viewBox="0 0 395.52 75.55310361735974" height="75.55310361735974" width="395.52"><g transform="matrix(1,0,0,1,0,0)"><svg width="395.52" viewBox="-2.4544 -39.122029999999995 268.01302 51.19643000000001" height="75.55310361735974" data-palette-color="#f4f3f0"><path d="M4.569 12.074l-0.077-0.138c0.432-0.378 0.757-1.001 0.977-1.869 0.218-0.874 0.371-1.848 0.457-2.921 0.079-1.079 0.081-2.184 0.008-3.317-0.08-1.131-0.206-2.162-0.378-3.092v0c-0.266-1.442-0.671-2.791-1.215-4.047-0.551-1.261-1.162-2.179-1.83-2.753v0c0.423-0.607 0.724-1.367 0.9-2.282 0.177-0.914 0.274-1.878 0.29-2.891 0.01-1.012-0.048-2.039-0.172-3.08-0.123-1.035-0.268-2.001-0.434-2.899v0c-0.137-0.741-0.272-1.38-0.405-1.918-0.133-0.538-0.243-0.948-0.329-1.231v0c-0.789-0.125-1.648-0.516-2.576-1.172-0.934-0.655-1.681-1.412-2.239-2.271v0c2.093-0.156 4.071-0.365 5.934-0.628 1.858-0.255 3.606-0.534 5.246-0.837v0c3.494-0.645 6.295-1.281 8.403-1.907 2.109-0.62 3.79-1.046 5.042-1.277v0c0.256-0.047 0.48-0.082 0.672-0.104 0.2-0.017 0.382-0.023 0.546-0.02v0c-0.119 0.422-0.185 1.18-0.201 2.275-0.014 1.101-0.001 2.292 0.04 3.572 0.035 1.288 0.089 2.539 0.164 3.752 0.075 1.213 0.136 2.131 0.183 2.753v0l-0.307 0.209c-1.275-0.626-2.255-1.397-2.939-2.314-0.685-0.918-1.292-2.094-1.821-3.528v0c-0.51-0.265-1.112-0.385-1.806-0.358-0.693 0.026-1.555 0.135-2.584 0.324v0c-0.833 0.154-1.629 0.318-2.39 0.492-0.768 0.176-1.374 0.305-1.82 0.387v0c0.008 0.961 0.069 2.062 0.183 3.302 0.114 1.24 0.258 2.556 0.434 3.947 0.17 1.399 0.37 2.847 0.599 4.343 0.23 1.503 0.481 2.992 0.753 4.468v0c0.373 2.019 0.75 3.933 1.132 5.74 0.38 1.801 0.76 3.365 1.141 4.691v0l8.283-0.686c0.086-2.07 0.553-3.98 1.402-5.73 0.856-1.751 1.81-3.47 2.862-5.155v0l0.301 0.035c0.038 0.759 0.111 1.501 0.218 2.228 0.1 0.727 0.213 1.428 0.338 2.103v0c0.309 1.672 0.666 3.165 1.072 4.48 0.413 1.32 0.793 2.294 1.139 2.922v0c-0.532 0.166-1.053 0.354-1.564 0.563-0.51 0.21-1.046 0.502-1.607 0.877-0.562 0.368-1.147 0.839-1.753 1.412-0.605 0.579-1.259 1.297-1.962 2.152v0c-2.849-0.301-5.624-0.409-8.327-0.323-2.703 0.086-5.113 0.324-7.23 0.715v0c-1.029 0.19-1.947 0.526-2.753 1.006zM63.128 0.898v0c-1.233 1.152-2.138 2.466-2.715 3.941-0.578 1.475-1.001 2.924-1.27 4.345v0c-0.251-0.626-0.578-1.292-0.981-1.998-0.41-0.706-0.885-1.376-1.427-2.01-0.548-0.633-1.159-1.208-1.833-1.724-0.681-0.522-1.399-0.914-2.153-1.177v0c0.252-0.329 0.42-0.738 0.503-1.227 0.083-0.489 0.107-1.168 0.073-2.037-0.034-0.863-0.122-1.961-0.266-3.294-0.143-1.333-0.315-3.005-0.514-5.016v0c-0.141-0.049-0.611-0.299-1.411-0.751-0.8-0.452-1.664-0.963-2.594-1.532v0c-1.046 0.831-2.069 1.643-3.066 2.434-0.998 0.791-1.913 1.521-2.746 2.19v0c0.454 2.408 0.946 4.67 1.475 6.785 0.524 2.123 1.115 4.045 1.774 5.767v0c-0.895-0.312-1.687-0.502-2.376-0.573-0.683-0.078-1.331-0.076-1.946 0.006v0c-0.549 0.073-1.084 0.194-1.606 0.365-0.522 0.17-1.057 0.349-1.604 0.535-0.553 0.188-1.131 0.372-1.732 0.553-0.602 0.174-1.274 0.31-2.014 0.408v0c-0.165 0.022-0.344 0.046-0.535 0.071-0.198 0.026-0.379 0.033-0.542 0.022v0c0.625-0.507 1.183-1.145 1.672-1.917 0.489-0.778 0.885-1.614 1.191-2.508 0.312-0.895 0.527-1.829 0.647-2.8 0.113-0.97 0.11-1.908-0.01-2.813v0c-0.219-1.652-0.624-3.236-1.215-4.751-0.598-1.515-1.385-2.735-2.362-3.662v0c0.683-1.799 1.086-3.473 1.21-5.022 0.124-1.55 0.087-3.068-0.11-4.555v0c-0.116-0.872-0.292-1.817-0.527-2.836v0c-1.388-0.018-2.5-0.391-3.337-1.121-0.836-0.723-1.37-1.96-1.602-3.711v0c1.4 0.11 2.544 0.164 3.431 0.16 0.888 0.003 1.785-0.055 2.691-0.175v0c0.515-0.068 1.077-0.17 1.684-0.304 0.608-0.128 1.25-0.334 1.926-0.619 0.668-0.29 1.378-0.691 2.13-1.201 0.759-0.511 1.544-1.183 2.355-2.017v0c0.389 0.244 1.149 0.523 2.28 0.838 1.124 0.308 2.427 0.579 3.911 0.813 1.477 0.234 3.034 0.391 4.672 0.469 1.645 0.078 3.177 0.022 4.599-0.166v0c0.449-0.06 0.883-0.134 1.302-0.223 0.419-0.089 0.848-0.197 1.288-0.322v0c-0.258 0.794-0.85 1.653-1.776 2.576-0.932 0.931-1.997 1.724-3.195 2.381v0c-0.033 0.462-0.015 0.954 0.054 1.475v0c0.068 0.515 0.164 1.061 0.288 1.637 0.123 0.575 0.267 1.148 0.43 1.718 0.156 0.571 0.332 1.109 0.527 1.615 0.201 0.498 0.404 0.915 0.609 1.25v0c-0.312 0.135-0.833 0.46-1.565 0.975-0.74 0.508-1.618 1.16-2.636 1.953v0c0.836 0.575 1.74 1.178 2.711 1.809 0.971 0.631 1.946 1.161 2.925 1.59v0c-0.111 0.378-0.152 1.009-0.122 1.892 0.036 0.883 0.13 1.889 0.279 3.02v0c0.111 0.839 0.257 1.684 0.437 2.534 0.18 0.85 0.402 1.662 0.666 2.434 0.27 0.771 0.568 1.465 0.891 2.081 0.33 0.609 0.715 1.082 1.157 1.42zM50.532-19.987l-1.039-5.935c-1.78-0.033-3.426-0.047-4.938-0.041-1.512 0.006-3.019-0.074-4.521-0.238v0c0.041 0.815 0.124 1.692 0.248 2.63 0.124 0.938 0.251 1.893 0.38 2.865v0l0.503 3.787 0.507 3.827c0.949-0.751 1.934-1.514 2.955-2.289 1.013-0.78 1.954-1.497 2.822-2.149 0.867-0.66 1.584-1.216 2.149-1.668 0.565-0.458 0.876-0.721 0.934-0.789zM67.571 2.529l-0.063-0.145c0.467-0.334 0.852-0.922 1.155-1.764 0.303-0.849 0.549-1.803 0.74-2.863 0.184-1.066 0.294-2.166 0.332-3.3 0.031-1.133 0.006-2.172-0.074-3.115v0c-0.124-1.461-0.395-2.843-0.814-4.146-0.426-1.309-0.943-2.282-1.552-2.919v0c0.481-0.563 0.854-1.29 1.119-2.182 0.265-0.892 0.456-1.842 0.571-2.849 0.109-1.006 0.152-2.033 0.13-3.082-0.022-1.042-0.071-2.018-0.149-2.928v0c-0.064-0.751-0.136-1.4-0.215-1.949-0.08-0.549-0.149-0.968-0.207-1.257v0c-0.773-0.202-1.589-0.675-2.449-1.418-0.866-0.743-1.535-1.569-2.007-2.479v0c2.098 0.049 4.088 0.034 5.967-0.045 1.874-0.072 3.641-0.179 5.302-0.32v0c3.541-0.301 6.39-0.66 8.55-1.077 2.16-0.411 3.874-0.67 5.142-0.778v0c0.259-0.022 0.485-0.035 0.68-0.038 0.201 0.003 0.383 0.014 0.545 0.034v0c-0.162 0.375-0.309 1.043-0.442 2.005-0.133 0.955-0.248 2.002-0.346 3.14-0.104 1.14-0.184 2.244-0.24 3.313-0.056 1.069-0.096 1.868-0.118 2.398v0l-0.327 0.168c-1.191-0.555-2.074-1.216-2.647-1.983-0.574-0.768-1.039-1.712-1.395-2.832v0c-0.482-0.314-1.069-0.491-1.761-0.533-0.693-0.042-1.56-0.018-2.604 0.071v0c-0.844 0.072-1.653 0.157-2.427 0.256-0.781 0.1-1.397 0.169-1.849 0.208v0c-0.151 1.291-0.216 2.852-0.194 4.683 0.022 1.831 0.09 3.773 0.204 5.823v0c0.457 0.028 0.923 0.032 1.396 0.012 0.473-0.027 0.839-0.051 1.097-0.073v0c0.684-0.058 1.336-0.384 1.954-0.979 0.626-0.588 1.211-1.334 1.757-2.236v0c0.193 0.378 0.394 0.813 0.603 1.303 0.202 0.491 0.431 0.98 0.687 1.467 0.255 0.48 0.531 0.938 0.829 1.375 0.297 0.43 0.635 0.746 1.014 0.948v0c-0.267 0.317-0.521 0.713-0.762 1.189-0.233 0.481-0.451 0.992-0.653 1.53-0.202 0.539-0.387 1.08-0.555 1.623-0.169 0.536-0.315 1.024-0.438 1.462v0c-0.223-0.342-0.486-0.715-0.787-1.117-0.295-0.396-0.603-0.762-0.926-1.096-0.323-0.334-0.664-0.609-1.024-0.826-0.366-0.216-0.742-0.308-1.127-0.276v0c-0.292 0.025-0.716 0.078-1.271 0.159-0.549 0.08-1.044 0.189-1.488 0.327v0l0.075 0.877c0.174 2.046 0.362 3.987 0.564 5.823 0.202 1.829 0.428 3.423 0.677 4.779v0l8.311 0.128c0.287-2.052 0.939-3.907 1.956-5.566 1.023-1.659 2.14-3.276 3.351-4.851v0l0.297 0.065c-0.036 0.759-0.036 1.505-0.001 2.238 0.029 0.734 0.072 1.442 0.131 2.127v0c0.144 1.694 0.353 3.215 0.628 4.563 0.282 1.354 0.565 2.361 0.849 3.019v0c-0.546 0.113-1.083 0.249-1.611 0.408-0.528 0.159-1.09 0.397-1.686 0.715-0.596 0.312-1.223 0.723-1.882 1.234-0.659 0.518-1.379 1.168-2.163 1.95v0c-2.806-0.578-5.558-0.956-8.256-1.135-2.698-0.179-5.12-0.177-7.265 0.004v0c-1.043 0.089-1.989 0.333-2.839 0.733zM135.323 1.604l-0.046 0.151c-1.877-0.602-3.733-1.261-5.567-1.977-1.827-0.716-3.638-1.57-5.433-2.56v0c-0.408 0.431-0.772 0.798-1.09 1.1-0.318 0.302-0.655 0.565-1.008 0.788-0.354 0.223-0.732 0.414-1.135 0.572-0.402 0.158-0.878 0.311-1.428 0.46v0c0.316-0.402 0.529-0.882 0.641-1.439 0.118-0.563 0.169-1.138 0.152-1.725v0c-0.026-0.946-0.175-1.863-0.446-2.748-0.271-0.893-0.512-1.646-0.723-2.261v0l-1.282-3.686c-0.905 1.266-1.804 2.661-2.695 4.186-0.885 1.525-1.652 2.983-2.3 4.375v0c-0.575-0.764-1.348-1.853-2.322-3.267-0.966-1.407-2.045-2.928-3.237-4.562v0l-0.709 2.57c-0.175 0.658-0.31 1.316-0.406 1.972-0.102 0.65-0.144 1.318-0.124 2.005v0c0.028 1.013 0.189 2.006 0.482 2.977 0.287 0.972 0.735 1.874 1.345 2.704v0c-0.659-0.209-1.212-0.423-1.658-0.644-0.446-0.214-0.86-0.463-1.241-0.746-0.388-0.283-0.773-0.589-1.156-0.919-0.383-0.336-0.827-0.724-1.333-1.163v0c-1.33 1.337-2.658 2.294-3.982 2.871-1.325 0.577-2.816 0.905-4.474 0.984v0c0.617-0.117 1.259-0.535 1.926-1.254 0.66-0.719 1.302-1.65 1.923-2.794 0.622-1.144 1.216-2.441 1.783-3.891 0.56-1.456 1.048-2.987 1.464-4.592v0l1.408-5.531c-1.173-1.175-2.441-2.173-3.805-2.996-1.357-0.829-2.575-1.229-3.654-1.199v0c-0.067 0.002-0.147 0.004-0.24 0.006-0.1 0.003-0.296 0.025-0.588 0.067v0l-0.055-0.149c1.386-0.759 2.682-1.155 3.889-1.188v0c0.813-0.022 1.647 0.111 2.502 0.401 0.855 0.283 1.847 0.719 2.977 1.308v0l2.389-9.119c0.151-0.558 0.251-1.051 0.3-1.479 0.055-0.422 0.079-0.766 0.071-1.032v0c-0.019-0.68-0.235-1.161-0.65-1.443-0.415-0.282-1.145-0.409-2.191-0.38v0c-0.653 0.018-1.352 0.084-2.096 0.198-0.75 0.121-1.643 0.292-2.677 0.515v0c0.185-0.299 0.649-0.655 1.391-1.069 0.736-0.407 1.628-0.805 2.678-1.195 1.05-0.389 2.184-0.724 3.404-1.004 1.213-0.274 2.392-0.426 3.539-0.458v0c0.846-0.023 1.662 0.051 2.447 0.222 0.792 0.172 1.388 0.499 1.788 0.981v0c0.592-0.05 1.226-0.151 1.902-0.302 0.683-0.146 1.332-0.317 1.946-0.514 0.615-0.197 1.166-0.392 1.655-0.586 0.482-0.193 0.801-0.342 0.958-0.447v0c-0.435 0.666-0.747 1.451-0.935 2.357-0.189 0.899-0.268 1.871-0.24 2.917v0c0.037 1.339 0.222 2.732 0.556 4.177 0.333 1.438 0.724 2.771 1.171 3.999 0.441 1.228 0.9 2.276 1.377 3.143 0.484 0.874 0.892 1.403 1.225 1.587v0c0.053 1.926 0.443 3.956 1.168 6.09 0.726 2.134 1.646 4.163 2.76 6.086 1.114 1.93 2.355 3.65 3.724 5.159 1.362 1.516 2.691 2.647 3.985 3.391zM112.691-11.185v0c0.532-0.762 1.137-1.585 1.812-2.471 0.682-0.886 1.305-1.76 1.868-2.623v0l-4.106-12.121-3.52 12.722c0.672 0.668 1.353 1.416 2.043 2.244 0.697 0.834 1.331 1.584 1.903 2.249zM160.621-36.301l0.097 0.192c-0.798 0.674-1.665 1.313-2.602 1.918-0.943 0.605-1.922 1.126-2.935 1.563-1.021 0.443-2.073 0.796-3.158 1.058-1.078 0.256-2.156 0.375-3.236 0.358v0c-0.353-0.006-0.693-0.011-1.02-0.017-0.327-0.005-0.653-0.027-0.979-0.066v0c-0.116 0.978-0.182 1.974-0.199 2.987v0c-0.045 2.773-0.074 5.563-0.086 8.37-0.012 2.807-0.044 5.79-0.095 8.95v0c-0.028 1.7 0.246 3.344 0.82 4.934 0.581 1.596 1.435 2.76 2.563 3.492v0c-1.377 0.631-2.538 1.306-3.483 2.024-0.938 0.718-1.779 1.758-2.521 3.119v0c-0.531-1.349-1.377-2.433-2.538-3.252-1.167-0.819-2.479-1.517-3.936-2.094v0c0.669-0.936 1.179-2.158 1.53-3.666 0.351-1.514 0.539-2.988 0.562-4.421v0c0.023-1.406 0.043-2.656 0.061-3.749 0.018-1.093 0.041-2.11 0.069-3.05 0.035-0.946 0.067-1.862 0.095-2.749 0.034-0.88 0.066-1.823 0.096-2.828 0.036-1.013 0.065-2.123 0.084-3.329 0.02-1.207 0.043-2.626 0.069-4.26v0c0.004-0.26 0.008-0.503 0.012-0.73 0.004-0.233-0.026-0.48-0.088-0.741v0c-2.147-0.428-4.187-0.861-6.12-1.3-1.94-0.438-3.706-0.67-5.299-0.696v0c-0.72-0.012-1.488 0.059-2.304 0.212v0l-0.047-0.15c1.768-0.491 3.222-1.104 4.36-1.84 1.139-0.735 2.287-1.613 3.443-2.634v0c1.692 0.514 3.129 0.928 4.311 1.24 1.188 0.313 2.295 0.561 3.318 0.744 1.024 0.177 2.032 0.3 3.025 0.369 0.999 0.063 2.135 0.105 3.408 0.126v0c-0.318-0.559-0.54-1.059-0.666-1.501-0.126-0.442-0.199-0.91-0.217-1.404v0c1.062 0.704 2.057 1.25 2.984 1.639 0.92 0.395 1.802 0.686 2.646 0.873 0.844 0.194 1.692 0.314 2.544 0.361 0.846 0.047 1.726 0.078 2.639 0.093v0c0.52 0.008 1 0 1.441-0.026 0.44-0.026 0.891-0.066 1.352-0.119zM171.289-0.979v0c0.466-0.656 0.891-1.389 1.273-2.198 0.383-0.809 0.701-1.653 0.956-2.531 0.261-0.884 0.48-1.778 0.655-2.681 0.176-0.903 0.309-1.776 0.4-2.619v0c-0.846-1.007-1.686-2.02-2.518-3.039-0.825-1.026-1.691-1.847-2.597-2.464v0c0.105-1.53-0.071-3.249-0.528-5.158-0.457-1.916-1.122-3.809-1.996-5.68-0.867-1.877-1.883-3.631-3.047-5.261-1.164-1.637-2.398-2.941-3.701-3.913v0c1.563 0.107 2.813 0.25 3.75 0.428 0.937 0.178 1.69 0.393 2.261 0.646 0.571 0.253 1.01 0.527 1.317 0.822 0.307 0.302 0.612 0.627 0.915 0.975v0c0.508-0.78 1.314-1.33 2.418-1.648 1.098-0.319 2.284-0.468 3.559-0.447v0c-0.431 0.532-0.805 1.121-1.123 1.767-0.325 0.646-0.511 1.311-0.558 1.996v0c-0.011 0.16-0.011 0.307 0 0.441 0.004 0.134 0.017 0.282 0.039 0.444v0l4.347 12.467 1.725 2.033 1.933-1.732 5.813-11.82c0.044-0.157 0.071-0.303 0.08-0.435 0.009-0.133 0.019-0.279 0.03-0.439v0c0.049-0.718-0.107-1.417-0.468-2.097-0.368-0.673-0.742-1.304-1.123-1.892v0c0.501 0.302 1.038 0.552 1.613 0.753 0.574 0.2 1.151 0.363 1.73 0.489 0.58 0.12 1.131 0.215 1.655 0.284 0.516 0.069 0.971 0.117 1.363 0.144v0c0.685 0.047 1.298 0.022 1.839-0.074 0.547-0.089 1.112-0.188 1.694-0.295 0.575-0.108 1.194-0.205 1.855-0.294 0.661-0.088 1.464-0.1 2.408-0.035v0c-0.916 0.498-1.863 1.202-2.841 2.11-0.978 0.915-1.931 1.946-2.859 3.092-0.934 1.145-1.829 2.354-2.684 3.625-0.855 1.264-1.608 2.496-2.258 3.694-0.657 1.198-1.185 2.314-1.583 3.349-0.398 1.035-0.621 1.895-0.668 2.58v0c-1.02 0.551-1.905 1.316-2.654 2.294-0.755 0.977-1.522 1.88-2.301 2.709v0c-0.034 0.98-0.013 1.987 0.064 3.021 0.076 1.034 0.205 2.032 0.386 2.994 0.175 0.961 0.392 1.834 0.652 2.621 0.253 0.786 0.546 1.387 0.878 1.804v0c-1.528 0.844-2.762 1.692-3.702 2.543-0.94 0.851-1.72 1.94-2.34 3.267v0c-0.228-1.352-0.935-2.583-2.122-3.694-1.18-1.117-2.492-2.099-3.937-2.946zM213.571 7.939v0c-1.218-1.799-2.466-3.314-3.742-4.543-1.277-1.229-2.59-2.355-3.939-3.378v0c0.037-0.029 0.076-0.205 0.117-0.529v0c0.073-0.582 0.088-1.501 0.044-2.756-0.037-1.254-0.131-2.721-0.282-4.4-0.152-1.679-0.344-3.487-0.578-5.425-0.233-1.938-0.522-3.889-0.866-5.854-0.343-1.972-0.719-3.87-1.128-5.695-0.415-1.826-0.87-3.446-1.364-4.858-0.495-1.406-1.032-2.559-1.611-3.458-0.58-0.893-1.177-1.378-1.792-1.456v0c1.455 0.183 2.643 0.406 3.564 0.671 0.921 0.264 1.658 0.545 2.212 0.842 0.554 0.298 0.974 0.616 1.261 0.955 0.287 0.332 0.557 0.675 0.808 1.029v0c0.655-0.509 1.203-0.883 1.643-1.124 0.447-0.239 0.864-0.409 1.253-0.507 0.389-0.099 0.788-0.146 1.197-0.142 0.416 0.005 0.905-0.007 1.466-0.037v0c-0.459 0.5-0.86 1.064-1.201 1.693-0.342 0.636-0.556 1.294-0.641 1.976v0c-0.02 0.159-0.032 0.305-0.035 0.439 0.004 0.128 0.012 0.277 0.024 0.446v0l2.918 26.552 1.558 2.121 1.978-1.625 8.3-25.191c0.054-0.161 0.089-0.305 0.104-0.431 0.017-0.132 0.035-0.278 0.055-0.436v0c0.09-0.714-0.026-1.421-0.348-2.12-0.322-0.699-0.643-1.348-0.964-1.946v0c0.512 0.36 1.066 0.658 1.661 0.894 0.594 0.243 1.187 0.442 1.779 0.597 0.585 0.154 1.138 0.274 1.658 0.36 0.514 0.078 0.967 0.142 1.357 0.191v0c0.741 0.093 1.427 0.116 2.058 0.067 0.632-0.055 1.264-0.116 1.898-0.184 0.633-0.068 1.299-0.125 1.997-0.172 0.697-0.04 1.499-0.003 2.405 0.111v0c-0.241 0.097-0.643 0.275-1.206 0.534-0.557 0.259-1.197 0.649-1.921 1.169-0.723 0.514-1.494 1.166-2.313 1.956-0.824 0.783-1.601 1.727-2.331 2.832-0.731 1.111-1.38 2.396-1.947 3.857-0.559 1.455-0.955 3.105-1.187 4.95v0c-0.053 0.423-0.069 0.818-0.048 1.183 0.022 0.359 0.109 0.978 0.26 1.857v0c-0.799 0.585-1.505 1.417-2.118 2.496-0.612 1.072-1.141 2.205-1.587 3.398-0.446 1.194-0.797 2.359-1.055 3.496-0.256 1.13-0.43 2.052-0.519 2.767v0c-0.021 0.165-0.032 0.305-0.033 0.419 0.006 0.115 0.002 0.222-0.01 0.321v0c-1.779 0.791-3.429 1.756-4.95 2.895-1.528 1.145-2.814 2.209-3.859 3.193zM233.814 6.956l-0.024-0.156c0.536-0.205 1.057-0.676 1.564-1.414 0.508-0.744 0.988-1.605 1.442-2.582 0.448-0.985 0.833-2.021 1.157-3.109 0.317-1.089 0.556-2.099 0.717-3.032v0c0.25-1.445 0.338-2.851 0.263-4.217-0.08-1.374-0.334-2.446-0.763-3.217v0c0.608-0.423 1.153-1.032 1.636-1.828 0.483-0.796 0.907-1.666 1.274-2.611 0.36-0.946 0.662-1.929 0.906-2.948 0.243-1.013 0.442-1.97 0.598-2.87v0c0.128-0.742 0.223-1.389 0.285-1.94 0.061-0.551 0.101-0.974 0.118-1.269v0c-0.697-0.391-1.367-1.055-2.01-1.992-0.65-0.938-1.087-1.907-1.314-2.906v0c2.017 0.579 3.946 1.068 5.785 1.468 1.831 0.405 3.568 0.749 5.21 1.033v0c3.501 0.606 6.349 0.98 8.544 1.123 2.193 0.149 3.917 0.333 5.172 0.55v0c0.256 0.044 0.478 0.09 0.666 0.136 0.194 0.054 0.366 0.111 0.519 0.171v0c-0.252 0.322-0.564 0.931-0.936 1.827-0.37 0.89-0.747 1.873-1.129 2.951-0.389 1.076-0.746 2.124-1.072 3.143-0.325 1.019-0.566 1.783-0.721 2.291v0l-0.359 0.08c-1.012-0.838-1.698-1.701-2.059-2.589-0.361-0.888-0.571-1.919-0.632-3.093v0c-0.386-0.425-0.909-0.746-1.569-0.962-0.66-0.216-1.505-0.413-2.536-0.591v0c-0.834-0.144-1.639-0.267-2.413-0.367-0.781-0.101-1.395-0.191-1.841-0.268v0c-0.473 1.21-0.931 2.704-1.374 4.482-0.443 1.777-0.869 3.672-1.278 5.685v0c0.435 0.143 0.884 0.265 1.347 0.365 0.464 0.094 0.824 0.163 1.081 0.207v0c0.677 0.117 1.389-0.034 2.138-0.452 0.754-0.411 1.51-0.984 2.266-1.718v0c0.091 0.415 0.175 0.886 0.253 1.413 0.071 0.527 0.169 1.058 0.293 1.594 0.125 0.529 0.276 1.042 0.454 1.539 0.179 0.491 0.426 0.882 0.74 1.174v0c-0.339 0.239-0.685 0.558-1.038 0.957-0.348 0.407-0.688 0.845-1.019 1.315-0.332 0.47-0.648 0.947-0.948 1.43-0.299 0.476-0.564 0.911-0.794 1.303v0c-0.129-0.388-0.289-0.814-0.478-1.28-0.185-0.458-0.391-0.89-0.619-1.294-0.228-0.405-0.488-0.758-0.781-1.059-0.3-0.302-0.64-0.486-1.021-0.552v0c-0.289-0.05-0.712-0.106-1.269-0.169-0.551-0.061-1.058-0.082-1.522-0.06v0l-0.15 0.867c-0.35 2.023-0.66 3.949-0.929 5.776-0.268 1.821-0.453 3.42-0.556 4.795v0l8.008 2.228c0.798-1.912 1.898-3.542 3.302-4.888 1.41-1.346 2.9-2.627 4.471-3.844v0l0.27 0.138c-0.227 0.725-0.416 1.447-0.568 2.165-0.158 0.717-0.295 1.414-0.412 2.09v0c-0.29 1.675-0.472 3.2-0.548 4.574-0.07 1.382-0.051 2.427 0.056 3.135v0c-0.557-0.029-1.111-0.033-1.662-0.013-0.551 0.02-1.155 0.108-1.811 0.265-0.655 0.15-1.366 0.389-2.134 0.716-0.768 0.334-1.63 0.78-2.586 1.339v0c-2.568-1.27-5.134-2.333-7.699-3.189-2.565-0.857-4.908-1.468-7.03-1.836v0c-1.031-0.178-2.008-0.182-2.931-0.01z" opacity="1" transform="matrix(1,0,0,1,0,0)" fill="#f4f3f0" class="wordmark-text-0" data-fill-palette-color="primary" id="text-0"></path></svg></g></svg></g><g transform="matrix(1,0,0,1,0,82.22348980718462)"><svg viewBox="0 0 395.52 57.94534377719757" height="57.94534377719757" width="395.52"><g transform="matrix(1,0,0,1,0,0)"><svg width="395.52" viewBox="1.7 -39.65 344.66 50.5" height="57.94534377719757" data-palette-color="#f4f3f0"><path d="M21.7-13.85Q21.7-13.4 21.55-11.3L21.55-11.3 7.9-11.3Q8.1-7.2 9.33-5.58 10.55-3.95 12.8-3.95L12.8-3.95Q14.35-3.95 15.6-4.48 16.85-5 18.3-6.15L18.3-6.15 20.85-2.65Q17.35 0.75 12.45 0.75L12.45 0.75Q7.25 0.75 4.48-2.85 1.7-6.45 1.7-13L1.7-13Q1.7-19.55 4.35-23.35 7-27.15 11.85-27.15L11.85-27.15Q16.5-27.15 19.1-23.78 21.7-20.4 21.7-13.85L21.7-13.85ZM15.7-15.3L15.7-15.65Q15.7-19.4 14.8-21.13 13.9-22.85 11.9-22.85L11.9-22.85Q10.05-22.85 9.08-21.18 8.1-19.5 7.9-15.3L7.9-15.3 15.7-15.3ZM38.95-37.7L45.1-37.05 45.1 0 39.65 0 39.35-3.05Q37 0.75 33.3 0.75L33.3 0.75Q29.2 0.75 27.02-2.93 24.85-6.6 24.85-13.2L24.85-13.2Q24.85-17.4 25.97-20.58 27.1-23.75 29.1-25.45 31.1-27.15 33.7-27.15L33.7-27.15Q36.9-27.15 38.95-24.5L38.95-24.5 38.95-37.7ZM35.05-3.9Q36.2-3.9 37.12-4.7 38.05-5.5 38.95-7L38.95-7 38.95-19.85Q37.35-22.55 35.3-22.55L35.3-22.55Q31.25-22.55 31.25-13.25L31.25-13.25Q31.25-8.2 32.25-6.05 33.25-3.9 35.05-3.9L35.05-3.9ZM50.8-26.45L56.95-26.45 56.95 0 50.8 0 50.8-26.45ZM53.85-39.65Q55.5-39.65 56.52-38.6 57.55-37.55 57.55-35.9L57.55-35.9Q57.55-34.3 56.52-33.25 55.5-32.2 53.85-32.2L53.85-32.2Q52.2-32.2 51.17-33.25 50.15-34.3 50.15-35.9L50.15-35.9Q50.15-37.55 51.17-38.6 52.2-39.65 53.85-39.65L53.85-39.65ZM73.79-5L75.94-1.2Q73.49 0.75 70.19 0.75L70.19 0.75Q66.74 0.75 64.94-1.23 63.14-3.2 63.14-6.6L63.14-6.6 63.14-22 60.04-22 60.04-26.45 63.14-26.45 63.14-32.3 69.29-33.05 69.29-26.45 74.29-26.45 73.69-22 69.29-22 69.29-6.6Q69.29-4.2 71.34-4.2L71.34-4.2Q71.99-4.2 72.49-4.38 72.99-4.55 73.79-5L73.79-5ZM78.49-26.45L84.64-26.45 84.64 0 78.49 0 78.49-26.45ZM81.54-39.65Q83.19-39.65 84.22-38.6 85.24-37.55 85.24-35.9L85.24-35.9Q85.24-34.3 84.22-33.25 83.19-32.2 81.54-32.2L81.54-32.2Q79.89-32.2 78.87-33.25 77.84-34.3 77.84-35.9L77.84-35.9Q77.84-37.55 78.87-38.6 79.89-39.65 81.54-39.65L81.54-39.65ZM102.69-27.15Q105.54-27.15 107.19-25.1 108.84-23.05 108.84-19.6L108.84-19.6 108.84 0 102.69 0 102.69-18.9Q102.69-20.8 102.16-21.63 101.64-22.45 100.64-22.45L100.64-22.45Q98.54-22.45 96.49-18.5L96.49-18.5 96.49 0 90.34 0 90.34-26.45 95.69-26.45 96.14-23Q97.49-25.1 99.01-26.13 100.54-27.15 102.69-27.15L102.69-27.15ZM132.34-29.85L133.89-25.1Q132.84-24.6 131.36-24.4 129.89-24.2 127.69-24.2L127.69-24.2Q129.79-23.2 130.81-21.53 131.84-19.85 131.84-17.4L131.84-17.4Q131.84-13.4 129.39-10.95 126.94-8.5 122.74-8.5L122.74-8.5Q121.49-8.5 120.19-8.9L120.19-8.9Q119.29-8.15 119.29-6.85L119.29-6.85Q119.29-5.85 119.84-5.35 120.39-4.85 121.89-4.85L121.89-4.85 124.69-4.85Q128.69-4.85 131.04-2.78 133.39-0.7 133.39 2.5L133.39 2.5Q133.39 6.3 130.46 8.58 127.54 10.85 122.14 10.85L122.14 10.85Q116.44 10.85 114.16 8.75 111.89 6.65 111.89 2.6L111.89 2.6 117.34 2.6Q117.34 4.75 118.34 5.65 119.34 6.55 122.19 6.55L122.19 6.55Q124.94 6.55 126.09 5.6 127.24 4.65 127.24 2.9L127.24 2.9Q127.24 1.2 126.29 0.4 125.34-0.4 123.34-0.4L123.34-0.4 121.44-0.4Q117.64-0.4 115.89-1.75 114.14-3.1 114.14-5.45L114.14-5.45Q114.14-6.8 114.86-8.03 115.59-9.25 116.84-10.2L116.84-10.2Q114.79-11.5 113.84-13.3 112.89-15.1 112.89-17.7L112.89-17.7Q112.89-22.05 115.49-24.58 118.09-27.1 122.49-27.1L122.49-27.1Q125.74-27.1 127.86-27.8 129.99-28.5 132.34-29.85L132.34-29.85ZM122.49-23Q120.74-23 119.84-21.75 118.94-20.5 118.94-17.8L118.94-17.8Q118.94-15.25 119.84-13.88 120.74-12.5 122.44-12.5L122.44-12.5Q124.19-12.5 125.04-13.73 125.89-14.95 125.89-17.85L125.89-17.85Q125.89-20.55 125.06-21.78 124.24-23 122.49-23L122.49-23ZM170.13-27.15Q172.78-27.15 174.38-25.1 175.98-23.05 175.98-19.6L175.98-19.6 175.98 0 169.93 0 169.93-18.95Q169.93-20.85 169.43-21.68 168.93-22.5 167.98-22.5L167.98-22.5Q166.03-22.5 164.23-18.8L164.23-18.8 164.23 0 158.23 0 158.23-18.95Q158.23-22.5 156.33-22.5L156.33-22.5Q154.28-22.5 152.53-18.8L152.53-18.8 152.53 0 146.48 0 146.48-26.45 151.83-26.45 152.23-23.05Q154.83-27.15 158.48-27.15L158.48-27.15Q160.33-27.15 161.68-26 163.03-24.85 163.73-22.75L163.73-22.75Q166.38-27.15 170.13-27.15L170.13-27.15ZM198.38-6.4Q198.38-5.1 198.73-4.48 199.08-3.85 199.88-3.45L199.88-3.45 198.63 0.65Q196.58 0.4 195.35-0.45 194.13-1.3 193.53-3.05L193.53-3.05Q191.23 0.75 187.08 0.75L187.08 0.75Q183.78 0.75 181.83-1.48 179.88-3.7 179.88-7.4L179.88-7.4Q179.88-11.7 182.55-13.95 185.23-16.2 190.33-16.2L190.33-16.2 192.38-16.2 192.38-18.05Q192.38-20.55 191.5-21.58 190.63-22.6 188.68-22.6L188.68-22.6Q186.33-22.6 182.83-21.3L182.83-21.3 181.43-25.3Q183.43-26.2 185.58-26.68 187.73-27.15 189.68-27.15L189.68-27.15Q198.38-27.15 198.38-18.35L198.38-18.35 198.38-6.4ZM188.73-3.7Q191.13-3.7 192.38-7L192.38-7 192.38-12.55 190.93-12.55Q188.38-12.55 187.2-11.4 186.03-10.25 186.03-7.85L186.03-7.85Q186.03-5.8 186.73-4.75 187.43-3.7 188.73-3.7L188.73-3.7ZM217.13-37.7L223.28-37.05 223.28 0 217.83 0 217.53-3.05Q215.18 0.75 211.48 0.75L211.48 0.75Q207.38 0.75 205.2-2.93 203.03-6.6 203.03-13.2L203.03-13.2Q203.03-17.4 204.15-20.58 205.28-23.75 207.28-25.45 209.28-27.15 211.88-27.15L211.88-27.15Q215.08-27.15 217.13-24.5L217.13-24.5 217.13-37.7ZM213.23-3.9Q214.38-3.9 215.3-4.7 216.23-5.5 217.13-7L217.13-7 217.13-19.85Q215.53-22.55 213.48-22.55L213.48-22.55Q209.43-22.55 209.43-13.25L209.43-13.25Q209.43-8.2 210.43-6.05 211.43-3.9 213.23-3.9L213.23-3.9ZM247.82-13.85Q247.82-13.4 247.67-11.3L247.67-11.3 234.02-11.3Q234.22-7.2 235.45-5.58 236.67-3.95 238.92-3.95L238.92-3.95Q240.47-3.95 241.72-4.48 242.97-5 244.42-6.15L244.42-6.15 246.97-2.65Q243.47 0.75 238.57 0.75L238.57 0.75Q233.37 0.75 230.6-2.85 227.82-6.45 227.82-13L227.82-13Q227.82-19.55 230.47-23.35 233.12-27.15 237.97-27.15L237.97-27.15Q242.62-27.15 245.22-23.78 247.82-20.4 247.82-13.85L247.82-13.85ZM241.82-15.3L241.82-15.65Q241.82-19.4 240.92-21.13 240.02-22.85 238.02-22.85L238.02-22.85Q236.17-22.85 235.2-21.18 234.22-19.5 234.02-15.3L234.02-15.3 241.82-15.3ZM280.82-13.85Q280.82-13.4 280.67-11.3L280.67-11.3 267.02-11.3Q267.22-7.2 268.44-5.58 269.67-3.95 271.92-3.95L271.92-3.95Q273.47-3.95 274.72-4.48 275.97-5 277.42-6.15L277.42-6.15 279.97-2.65Q276.47 0.75 271.57 0.75L271.57 0.75Q266.37 0.75 263.59-2.85 260.82-6.45 260.82-13L260.82-13Q260.82-19.55 263.47-23.35 266.12-27.15 270.97-27.15L270.97-27.15Q275.62-27.15 278.22-23.78 280.82-20.4 280.82-13.85L280.82-13.85ZM274.82-15.3L274.82-15.65Q274.82-19.4 273.92-21.13 273.02-22.85 271.02-22.85L271.02-22.85Q269.17-22.85 268.19-21.18 267.22-19.5 267.02-15.3L267.02-15.3 274.82-15.3ZM302.02-6.4Q302.02-5.1 302.37-4.48 302.72-3.85 303.52-3.45L303.52-3.45 302.27 0.65Q300.22 0.4 298.99-0.45 297.77-1.3 297.17-3.05L297.17-3.05Q294.87 0.75 290.72 0.75L290.72 0.75Q287.42 0.75 285.47-1.48 283.52-3.7 283.52-7.4L283.52-7.4Q283.52-11.7 286.19-13.95 288.87-16.2 293.97-16.2L293.97-16.2 296.02-16.2 296.02-18.05Q296.02-20.55 295.14-21.58 294.27-22.6 292.32-22.6L292.32-22.6Q289.97-22.6 286.47-21.3L286.47-21.3 285.07-25.3Q287.07-26.2 289.22-26.68 291.37-27.15 293.32-27.15L293.32-27.15Q302.02-27.15 302.02-18.35L302.02-18.35 302.02-6.4ZM292.37-3.7Q294.77-3.7 296.02-7L296.02-7 296.02-12.55 294.57-12.55Q292.02-12.55 290.84-11.4 289.67-10.25 289.67-7.85L289.67-7.85Q289.67-5.8 290.37-4.75 291.07-3.7 292.37-3.7L292.37-3.7ZM315.16-27.15Q319.86-27.15 323.11-24.05L323.11-24.05 320.76-20.7Q319.36-21.7 318.11-22.2 316.86-22.7 315.56-22.7L315.56-22.7Q314.11-22.7 313.29-21.93 312.46-21.15 312.46-19.8L312.46-19.8Q312.46-18.45 313.39-17.63 314.31-16.8 317.11-15.7L317.11-15.7Q320.56-14.35 322.21-12.5 323.86-10.65 323.86-7.55L323.86-7.55Q323.86-3.7 321.16-1.48 318.46 0.75 314.31 0.75L314.31 0.75Q311.61 0.75 309.34-0.23 307.06-1.2 305.36-2.95L305.36-2.95 308.36-6.25Q311.16-3.8 314.06-3.8L314.06-3.8Q315.71-3.8 316.66-4.67 317.61-5.55 317.61-7.1L317.61-7.1Q317.61-8.25 317.21-8.97 316.81-9.7 315.81-10.33 314.81-10.95 312.81-11.7L312.81-11.7Q309.36-13.05 307.89-14.85 306.41-16.65 306.41-19.45L306.41-19.45Q306.41-22.8 308.79-24.98 311.16-27.15 315.16-27.15L315.16-27.15ZM346.36-26.45L339.36 0.1Q338.06 4.9 335.16 7.65 332.26 10.4 327.41 10.85L327.41 10.85 326.71 6.5Q329.86 5.85 331.44 4.42 333.01 3 333.91 0L333.91 0 331.61 0 324.91-26.45 331.16-26.45 335.56-4.1 340.26-26.45 346.36-26.45Z" opacity="1" transform="matrix(1,0,0,1,0,0)" fill="#f4f3f0" class="slogan-text-1" data-fill-palette-color="secondary" id="text-1"></path></svg></g></svg></g></svg></g></svg></g><g transform="matrix(1,0,0,1,87.04128812406312,0)"><svg viewBox="0 0 221.43742375187375 226.79317273953035" height="226.79317273953035" width="221.43742375187375"><g><svg xmlns="http://www.w3.org/2000/svg" xmlns:xlink="http://www.w3.org/1999/xlink" version="1.1" x="0" y="0" viewBox="5 3.911245823753835 90 92.1767657910851" enable-background="new 0 0 100 100" xml:space="preserve" height="226.79317273953035" width="221.43742375187375" class="icon-icon-0" data-fill-palette-color="accent" id="icon-0"><g fill="#2f84ff" data-fill-palette-color="accent"><path d="M74.994 46.271C65.665 48.771 45.471 57.426 53.644 80.796 55.888 87.216 58.74 95.03 76.148 96.088 76.148 96.088 94.617 96.187 95 78.105 95 78.105 94.229 63.296 78.938 64.544 78.938 64.544 72.013 65.121 72.399 73.777 72.399 73.777 73.456 80.606 79.323 79.836 79.323 79.836 87.395 78.826 82.594 72.141 82.399 71.87 81.246 70.987 83.553 71.228 85.862 71.469 91.346 76.568 88.942 84.453 88.942 84.453 87.102 91.714 79.204 93.03 79.024 93.059 78.839 93.086 78.649 93.108 70.282 94.166 62.686 86.281 64.32 80.991 64.32 80.991 65.188 78.298 67.591 78.298 67.591 78.298 70.682 79.262 69.611 76.375 68.918 74.502 66.916 70.893 62.205 73.393 62.205 73.393 55.473 76.858 59.896 84.743L60.185 85.608S59.703 86.952 59.031 85.414C58.359 83.877 52.164 76.671 56.34 67.237 57.188 65.326 59.994 61.278 62.014 61.084 62.014 61.084 64.106 60.266 66.963 62.078 67.045 62.13 67.125 62.184 67.207 62.238 70.189 64.258 74.422 62.333 75.094 60.89S77.742 55.606 80.67 55.888C81.551 55.974 81.416 56.195 83.268 58.293 83.854 58.958 85.864 60.026 85.961 55.986 85.961 55.986 86.664 53.327 84.422 51.56 83.957 51.194 82.692 50.504 82.307 50.504 82.307 50.504 81.053 50.118 82.114 49.445 82.114 49.445 90.866 44.155 82.884 33.768 81.45 31.903 76.368 29.707 73.65 35.595 73.146 36.686 72.837 38.805 76.538 39.442 77.201 39.555 78.17 40.116 78.076 37.23 78.076 37.23 78.17 35.691 79.806 36.172 79.806 36.172 83.529 38.196 79.423 43.192 78.562 44.234 76.014 45.999 74.994 46.271" fill="#2f84ff" data-fill-palette-color="accent"></path><path d="M49.666 49.229C48.656 49.157 48.873 47.713 48.873 47.713 48.945 43.746 46.492 38.337 46.492 38.337 44.472 33.144 45.577 26.718 46.637 23.045 49.897 11.754 49.666 11.36 47.647 8.114 43.617 1.637 39.695 4.131 37.91 5.878 34.745 8.975 37.765 10.639 37.765 10.639 39.929 12.514 40.813 11.071 41.011 10.278 41.466 8.457 42.742 8.547 42.742 8.547 44.762 8.547 44.689 10.206 44.689 10.206 45.122 12.153 41.371 15.183 41.371 15.183 38.197 17.924 39.135 21.387 39.135 21.387 40.073 23.911 38.743 23.839 38.743 23.839 38.062 23.695 37.904 23.013 37.692 22.685 33.076 15.544 28.1 22.18 28.1 22.18 26.729 25.065 29.921 24.557 30.84 24.705 34.636 25.313 33.653 31.268 33.653 31.268 32.788 40.357 35.817 42.881 42.236 46.92S48.259 59.398 48.259 59.398C47.937 62.932 49.665 62.572 49.665 62.572H50.254S51.982 62.932 51.659 59.398C51.659 59.398 51.263 50.959 57.682 46.92 64.102 42.881 67.131 40.357 66.266 31.268 66.266 31.268 65.283 25.313 69.078 24.705 69.998 24.557 73.189 25.065 71.818 22.18 71.818 22.18 66.841 15.544 62.225 22.685 62.013 23.013 61.855 23.695 61.175 23.839 61.175 23.839 59.845 23.911 60.782 21.387 60.782 21.387 61.72 17.925 58.546 15.183 58.546 15.183 54.796 12.154 55.228 10.206 55.228 10.206 55.157 8.547 57.176 8.547 57.176 8.547 58.452 8.457 58.907 10.278 59.105 11.07 59.989 12.514 62.153 10.639 62.153 10.639 65.173 8.975 62.008 5.878 60.223 4.131 56.301 1.637 52.27 8.114 50.251 11.36 50.021 11.754 53.28 23.045 54.341 26.718 55.444 33.144 53.425 38.337 53.425 38.337 50.973 43.746 51.045 47.713 51.045 47.713 51.262 49.156 50.252 49.229z" fill="#2f84ff" data-fill-palette-color="accent"></path><path d="M54.041 87.047C55.732 92.039 53.954 96.088 50.072 96.088S44.415 92.039 46.106 87.047C47.796 82.057 49.573 78.008 50.073 78.008S52.35 82.057 54.041 87.047" fill="#2f84ff" data-fill-palette-color="accent"></path><path d="M25.005 46.271C34.334 48.771 54.527 57.426 46.355 80.796 44.111 87.216 41.259 95.03 23.851 96.088 23.851 96.088 5.383 96.187 5 78.105 5 78.105 5.771 63.296 21.062 64.544 21.062 64.544 27.986 65.121 27.601 73.777 27.601 73.777 26.543 80.606 20.676 79.836 20.676 79.836 12.604 78.826 17.405 72.141 17.598 71.87 18.753 70.987 16.445 71.228 14.136 71.469 8.652 76.568 11.057 84.453 11.057 84.453 12.897 91.714 20.794 93.03 20.975 93.059 21.159 93.086 21.349 93.108 29.716 94.166 37.312 86.281 35.678 80.991 35.678 80.991 34.81 78.298 32.407 78.298 32.407 78.298 29.316 79.262 30.387 76.375 31.081 74.502 33.082 70.893 37.793 73.393 37.793 73.393 44.526 76.858 40.102 84.743L39.814 85.608S40.295 86.952 40.967 85.414C41.639 83.877 47.835 76.671 43.658 67.237 42.81 65.326 40.005 61.278 37.985 61.084 37.985 61.084 35.893 60.266 33.035 62.078 32.954 62.13 32.873 62.184 32.792 62.238 29.81 64.258 25.576 62.333 24.904 60.89S22.256 55.606 19.328 55.888C18.447 55.974 18.582 56.195 16.731 58.293 16.145 58.958 14.134 60.026 14.038 55.986 14.038 55.986 13.335 53.327 15.577 51.56 16.042 51.194 17.306 50.504 17.691 50.504 17.691 50.504 18.945 50.118 17.885 49.445 17.885 49.445 9.132 44.155 17.114 33.768 18.548 31.903 23.631 29.707 26.349 35.595 26.854 36.686 27.162 38.805 23.461 39.442 22.799 39.555 21.829 40.116 21.924 37.23 21.924 37.23 21.829 35.691 20.193 36.172 20.193 36.172 16.469 38.196 20.577 43.192 21.437 44.234 23.985 45.999 25.005 46.271" fill="#2f84ff" data-fill-palette-color="accent"></path></g></svg></g></svg></g><g></g></svg></g><defs></defs></svg><rect width="330.90167506015166" height="327.2" fill="none" stroke="none" visibility="hidden"></rect></g></svg></g></svg>