<?xml version="1.0" encoding="UTF-8" standalone="no"?>
<!-- Created with Inkscape (http://www.inkscape.org/) -->

<svg
   width="210mm"
   height="297mm"
   viewBox="0 0 210 297"
   version="1.1"
   id="svg1"
   xml:space="preserve"
   inkscape:export-filename="hosting.svg"
   inkscape:export-xdpi="96"
   inkscape:export-ydpi="96"
   xmlns:inkscape="http://www.inkscape.org/namespaces/inkscape"
   xmlns:sodipodi="http://sodipodi.sourceforge.net/DTD/sodipodi-0.dtd"
   xmlns="http://www.w3.org/2000/svg"
   xmlns:svg="http://www.w3.org/2000/svg"><sodipodi:namedview
     id="namedview1"
     pagecolor="#ffffff"
     bordercolor="#000000"
     borderopacity="0.25"
     inkscape:showpageshadow="2"
     inkscape:pageopacity="0.0"
     inkscape:pagecheckerboard="0"
     inkscape:deskcolor="#d1d1d1"
     inkscape:document-units="mm" /><defs
     id="defs1" /><g
     inkscape:label="Livello 1"
     inkscape:groupmode="layer"
     id="layer1"><path
       style="fill:#ffffff"
       d="m 79.360691,211.51647 v -7.01397 h 4.675986 4.675987 v 7.01397 7.01398 h -4.675987 -4.675986 z m 45.980539,0 v -7.01397 h 4.67599 4.67598 v 7.01397 7.01398 h -4.67598 -4.67599 z M 69.756413,198.5351 69.229387,198.00807 v -11.17041 -11.17041 h 37.818393 37.81839 l -0.21566,11.49513 -0.21567,11.49513 -37.0757,0.20231 -37.075701,0.2023 z m 10.383609,-11.56755 v -5.84499 h -2.337993 -2.337994 v 5.84499 5.84498 h 2.337994 2.337993 z m 12.469297,-0.0494 v -5.89436 l -2.532826,0.24421 -2.532826,0.24421 0.194833,0.5845 0.194833,0.5845 v 5.06565 5.06565 h 2.337993 2.337993 z m 11.689961,0.0494 v -5.84499 h -2.33799 -2.337991 v 5.84499 5.84498 h 2.337991 2.33799 z m 54.55319,-12.07963 v -5.45532 h 1.90809 1.9081 l 6.14115,-1.93999 6.14116,-1.93999 4.62648,-2.99024 4.62649,-2.99024 2.25612,-2.66825 2.25612,-2.66825 1.78411,-3.89665 1.78411,-3.89666 0.869,-5.45531 0.869,-5.45532 -0.53071,-4.67599 -0.53071,-4.67598 -1.42534,-4.60783 -1.42534,-4.60782 -2.83568,-4.11728 -2.83568,-4.11729 -2.4671,-1.87824 -2.4671,-1.87825 -3.50699,-1.86594 -3.50699,-1.86594 -8.57264,0.0222 -8.57264,0.0222 -4.59685,1.8306 -4.59685,1.8306 -6.00659,4.09003 -6.00658,4.09002 -3.28858,-3.81781 -3.28858,-3.8178 0.25372,-0.72625 0.25372,-0.72625 4.13406,-3.07899 4.13406,-3.078993 4.43858,-2.21641 4.43858,-2.21641 0.3259,-0.196 0.32589,-0.19601 -1.10522,-2.10696 -1.10523,-2.10696 -4.56586,-4.90088 -4.56586,-4.90087 -4.40393,-2.67524 -4.40393,-2.67525 -6.22716,-2.12473 -6.22717,-2.12472 -8.57265,0.0173 -8.572641,0.0173 -6.357305,2.06119 -6.357304,2.06119 -4.698723,3.13768 -4.698723,3.13769 -3.963371,4.33656 -3.963372,4.33656 -3.045348,6.34777 -3.045349,6.347783 -0.935426,4.87082 -0.935427,4.87081 H 56.822431 55.5289 l -4.64489,1.19904 -4.64489,1.19905 -4.793861,2.23099 -4.79386,2.23098 -3.273805,3.27381 -3.273805,3.2738 -2.02645,4.40164 -2.02645,4.40163 0.05317,6.62431 0.05317,6.62431 1.29487,3.50699 1.294869,3.50699 2.762462,4.03529 2.762461,4.03529 4.035289,2.73033 4.035289,2.73033 3.312157,0.95622 3.312158,0.95622 v 5.43156 5.43156 l -3.312158,-0.50135 -3.312157,-0.50136 -5.558029,-2.71261 -5.558029,-2.71262 -4.770988,-5.1002 -4.770988,-5.1002 -1.876714,-3.70352 -1.876714,-3.70352 -1.185559,-4.25303 -1.18556,-4.25303 -0.488044,-3.89666 -0.488043,-3.89666 0.840757,-5.45531 0.840758,-5.45532 2.665539,-5.45532 2.665539,-5.45531 3.283673,-3.40636 3.283674,-3.40635 4.560407,-2.94754 4.560407,-2.94753 5.796459,-1.79931 5.796458,-1.79931 1.692663,-5.264193 1.692663,-5.26419 2.833147,-4.89677 2.833146,-4.89676 6.234649,-6.25397 6.234648,-6.25396 5.455318,-2.83592 5.455317,-2.83592 4.813097,-1.61488 4.813097,-1.61488 6.474389,-0.72435 6.474394,-0.72435 6.74219,0.69754 6.74219,0.69754 6.12959,1.94403 6.12958,1.94404 4.97615,2.94243 4.97615,2.94243 5.15515,4.77129 5.15516,4.77128 3.50699,5.53491 3.50699,5.53491 6.65541,0.0199 6.65541,0.0199 4.60179,1.19862 4.60179,1.19861 4.22576,2.41773 4.22576,2.41774 4.233,4.301173 4.23299,4.30117 3.01499,6.30527 3.015,6.30528 0.9685,4.67598 0.9685,4.67599 -4e-5,7.40364 -5e-5,7.40365 -1.27246,4.85108 -1.27245,4.85108 -2.46225,4.87769 -2.46225,4.87768 -4.57708,4.47868 -4.57709,4.47868 -7.20464,3.47568 -7.20464,3.47569 -4.78848,1.21564 -4.78848,1.21565 h -2.42033 -2.42033 z M 69.229387,157.74263 v -11.68996 h 37.797553 37.79757 v 11.68996 11.68997 H 107.02694 69.229387 Z m 10.910635,0 v -5.45531 h -2.337993 -2.337994 v 5.45531 5.45532 h 2.337994 2.337993 z m 12.469297,0 v -5.45531 h -2.532826 -2.532826 v 5.45531 5.45532 h 2.532826 2.532826 z m 11.689961,0 v -5.45531 h -2.33799 -2.337991 v 5.45531 5.45532 h 2.337991 2.33799 z m 30.7394,3.72325 1.21318,-1.73207 v -1.77492 -1.77492 l -1.55866,-1.55866 -1.55866,-1.55866 h -2.28143 -2.28143 l -1.61523,2.05342 -1.61522,2.05343 v 0.9588 0.9588 l 1.61522,2.05342 1.61523,2.05343 h 2.6269 2.62691 z"
       id="path1" /></g></svg>
