<?xml version="1.0" encoding="UTF-8" standalone="no"?>
<svg
   width="100"
   height="100"
   viewBox="0 0 100 100"
   version="1.1"
   id="svg1"
   inkscape:version="1.3.2 (091e20e, 2023-11-25, custom)"
   xmlns:inkscape="http://www.inkscape.org/namespaces/inkscape"
   xmlns="http://www.w3.org/2000/svg"
   xmlns:svg="http://www.w3.org/2000/svg">
  <sodipodi:namedview
     id="namedview1"
     pagecolor="#ffffff"
     bordercolor="#000000"
     borderopacity="0.25"
     inkscape:showpageshadow="2"
     inkscape:pageopacity="0.0"
     inkscape:pagecheckerboard="0"
     inkscape:deskcolor="#d1d1d1"
     inkscape:document-units="px"
     inkscape:zoom="12.21"
     inkscape:cx="60.196559"
     inkscape:cy="42.301391"
     inkscape:window-width="2560"
     inkscape:window-height="1417"
     inkscape:window-x="1912"
     inkscape:window-y="-8"
     inkscape:window-maximized="1"
     inkscape:current-layer="layer1" />
  <defs
     id="defs1" />
  <g
     inkscape:label="Livello 1"
     inkscape:groupmode="layer"
     id="layer1">
    <circle
       style="fill:#000000;stroke-width:1.85941"
       id="path2"
       cx="53.731876"
       cy="20.165422"
       r="10" />
    <path
       style="fill:none;stroke:#000000;stroke-width:1px;stroke-linecap:butt;stroke-linejoin:miter;stroke-opacity:1"
       d="m 14.004914,69.61507 16.625717,-24.242425 3.767404,5.323506 10.483785,-15.298228 8.598934,-12.5478 30.87633,46.764947 z"
       id="path1"
       sodipodi:nodetypes="ccccccc"
       inkscape:label="path1" />
    <path
       style="fill:#ffffff;stroke-width:0.0579121"
       d="m 15.138539,68.915633 c 0.510297,-0.778812 15.456206,-22.53198 15.48905,-22.543688 0.02415,-0.0086 0.873721,1.157597 1.887944,2.591566 1.014223,1.433969 1.863984,2.607217 1.888358,2.607217 0.02437,0 4.297559,-6.208901 9.495966,-13.797559 5.198408,-7.588657 9.481978,-13.83021 9.519047,-13.870117 0.0524,-0.05641 3.378469,4.941733 14.948571,22.463512 8.184646,12.394839 14.902016,22.57152 14.927486,22.614845 0.03903,0.06639 -5.323397,0.07877 -34.102412,0.07877 H 15.043826 Z"
       id="path3" />
    <path
       style="fill:#000000;stroke-width:0.04095"
       d="m 16.333948,67.14783 c 0.737308,-1.075451 4.239734,-6.18448 7.783169,-11.353399 3.543435,-5.168919 6.463169,-9.419089 6.488299,-9.444822 0.03389,-0.03471 0.526665,0.633793 1.908917,2.589686 1.024774,1.45006 1.874242,2.636655 1.887706,2.636878 0.0267,4.4e-4 0.525104,-0.723995 7.493904,-10.892542 l 4.700922,-6.859365 0.565204,-0.292697 c 1.920647,-0.994625 3.674627,-1.497962 4.752998,-1.363959 0.439677,0.05464 0.650889,0.136258 1.050664,0.406024 0.373079,0.251751 0.717778,0.415944 1.090692,0.519538 0.376208,0.104509 1.477641,0.105695 1.963233,0.0021 0.621929,-0.132663 1.350131,-0.401942 2.080074,-0.769183 l 0.708247,-0.356326 0.292191,0.435508 c 0.160708,0.239529 0.324361,0.463405 0.363677,0.497503 0.05251,0.04554 23.703837,35.840847 23.885172,36.149219 0.02407,0.04093 -6.819721,0.05119 -34.162764,0.05119 H 14.993388 Z"
       id="path5" />
    <path
       style="display:inline;fill:#ffffff;stroke:#f9f9f9;stroke-width:0.0102375;stroke-opacity:1"
       d="m 30.622925,52.829555 c -0.156813,-0.02613 -0.243729,-0.07879 -0.43756,-0.265106 -0.22184,-0.213238 -0.377198,-0.325173 -0.604079,-0.435234 -0.59149,-0.286935 -1.350813,-0.311092 -2.216421,-0.07051 -0.243076,0.06756 -0.548098,0.173231 -0.770898,0.267071 -0.06082,0.02562 -0.112167,0.04489 -0.11411,0.04283 -0.0035,-0.0037 0.737285,-1.084686 2.699642,-3.939103 1.379773,-2.007 1.4193,-2.063819 1.435706,-2.063819 0.05282,0 0.486495,0.590715 1.950378,2.656634 0.381026,0.537725 0.797741,1.125052 0.926035,1.305171 0.128294,0.180118 0.234943,0.332145 0.236998,0.337837 0.0047,0.0131 -0.163985,0.203312 -0.43244,0.487529 -0.406872,0.43076 -0.877736,0.851972 -1.253834,1.121617 -0.567254,0.406697 -1.087939,0.610318 -1.419417,0.555083 z"
       id="path7" />
    <text
       xml:space="preserve"
       style="font-size:8.65842px;fill:#000000;fill-opacity:1;stroke:#ffffff;stroke-width:0.721535;stroke-opacity:1"
       x="49.356312"
       y="22.163639"
       id="text61"
       transform="scale(1.0258351,0.97481555)"><tspan
         sodipodi:role="line"
         id="tspan61"
         x="49.356312"
         y="22.163639"
         style="stroke-width:0.721535">Z</tspan></text>
    <text
       xml:space="preserve"
       style="font-size:8px;fill:#fff2f2;fill-opacity:1;stroke:#ffffff;stroke-opacity:1"
       x="20.229321"
       y="67.40377"
       id="text62"><tspan
         sodipodi:role="line"
         id="tspan62"
         x="20.229321"
         y="67.40377"
         style="font-style:normal;font-variant:normal;font-weight:normal;font-stretch:normal;font-family:Montserrat-Alt1;-inkscape-font-specification:Montserrat-Alt1">CYBERZENITH</tspan></text>
  </g>
</svg>